<?xml version="1.0" encoding="UTF-8"?>
<svg width="498px" height="500px" viewBox="0 0 498 500" version="1.1" xmlns="http://www.w3.org/2000/svg" xmlns:xlink="http://www.w3.org/1999/xlink">
    <!-- Generator: Sketch 49.3 (51167) - http://www.bohemiancoding.com/sketch -->
    <title>Group Copy 2</title>
    <desc>Created with Sketch.</desc>
    <defs></defs>
    <g id="Page-1" stroke="none" stroke-width="1" fill="none" fill-rule="evenodd" opacity="0.461163949">
        <g id="Chrom-Extention" transform="translate(-2.000000, 0.000000)">
            <g id="Group-Copy-2" transform="translate(-62.000000, -28.000000)">
                <path d="M554.025397,493.649126 L558.21319,485.131638 C558.271537,485.012967 558.411532,484.965854 558.525877,485.026409 C558.568435,485.048946 558.603266,485.084547 558.625631,485.128364 L562.972917,493.645852 C563.033006,493.763583 562.989757,493.909578 562.876318,493.97194 C562.8428,493.990367 562.805446,494 562.767517,494 L554.232437,494 C554.104066,494 554,493.891998 554,493.75877 C554,493.720653 554.008703,493.683078 554.025397,493.649126 Z" id="Triangle" fill="#F5A623" opacity="0.77" transform="translate(558.500000, 489.500000) scale(-1, 1) rotate(-334.000000) translate(-558.500000, -489.500000) "></path>
                <path d="M196.022575,442.688112 L199.745058,435.117012 C199.796922,435.011526 199.921362,434.969648 200.023002,435.023474 C200.060831,435.043508 200.091792,435.075153 200.111672,435.114102 L203.975926,442.685202 C204.029339,442.789852 203.990895,442.919625 203.89006,442.975058 C203.860267,442.991437 203.827063,443 203.793348,443 L196.206611,443 C196.092503,443 196,442.903998 196,442.785573 C196,442.751691 196.007736,442.718292 196.022575,442.688112 Z" id="Triangle" fill="#F5A623" opacity="0.83" transform="translate(200.000000, 439.000000) rotate(-227.000000) translate(-200.000000, -439.000000) "></path>
                <path d="M139.025397,51.6491263 L143.21319,43.1316383 C143.271537,43.0129672 143.411532,42.9658543 143.525877,43.0264086 C143.568435,43.048946 143.603266,43.0845466 143.625631,43.1283642 L147.972917,51.6458523 C148.033006,51.7635832 147.989757,51.9095778 147.876318,51.9719404 C147.8428,51.9903666 147.805446,52 147.767517,52 L139.232437,52 C139.104066,52 139,51.8919975 139,51.7587697 C139,51.7206528 139.008703,51.6830785 139.025397,51.6491263 Z" id="Triangle" fill="#F5A623" opacity="0.74" transform="translate(143.500000, 47.500000) scale(-1, 1) rotate(-327.000000) translate(-143.500000, -47.500000) "></path>
                <path d="M465.019753,503.727098 L468.276926,497.102385 C468.322307,497.010086 468.431192,496.973442 468.520127,497.02054 C468.553227,497.038069 468.580318,497.065758 468.597713,497.099839 L471.978935,503.724552 C472.025671,503.81612 471.992033,503.929672 471.903803,503.978176 C471.877733,503.992507 471.848681,504 471.81918,504 L465.180784,504 C465.08094,504 465,503.915998 465,503.812376 C465,503.78273 465.006769,503.753505 465.019753,503.727098 Z" id="Triangle" fill="#F5A623" opacity="0.83" transform="translate(468.500000, 500.500000) scale(1, -1) rotate(-10.000000) translate(-468.500000, -500.500000) "></path>
                <path d="M484.019753,401.727098 L487.276926,395.102385 C487.322307,395.010086 487.431192,394.973442 487.520127,395.02054 C487.553227,395.038069 487.580318,395.065758 487.597713,395.099839 L490.978935,401.724552 C491.025671,401.81612 490.992033,401.929672 490.903803,401.978176 C490.877733,401.992507 490.848681,402 490.81918,402 L484.180784,402 C484.08094,402 484,401.915998 484,401.812376 C484,401.78273 484.006769,401.753505 484.019753,401.727098 Z" id="Triangle" fill="#F5A623" opacity="0.88" transform="translate(487.500000, 398.500000) scale(1, -1) rotate(-113.000000) translate(-487.500000, -398.500000) "></path>
                <path d="M407.019753,84.7270983 L410.276926,78.1023853 C410.322307,78.0100856 410.431192,77.9734422 410.520127,78.02054 C410.553227,78.0380691 410.580318,78.0657585 410.597713,78.0998388 L413.978935,84.7245518 C414.025671,84.8161203 413.992033,84.9296716 413.903803,84.9781758 C413.877733,84.9925073 413.848681,85 413.81918,85 L407.180784,85 C407.08094,85 407,84.9159981 407,84.8123764 C407,84.78273 407.006769,84.7535055 407.019753,84.7270983 Z" id="Triangle" fill="#F5A623" opacity="0.85" transform="translate(410.500000, 81.500000) scale(-1, -1) rotate(-328.000000) translate(-410.500000, -81.500000) "></path>
                <path d="M475.025397,300.649126 L479.21319,292.131638 C479.271537,292.012967 479.411532,291.965854 479.525877,292.026409 C479.568435,292.048946 479.603266,292.084547 479.625631,292.128364 L483.972917,300.645852 C484.033006,300.763583 483.989757,300.909578 483.876318,300.97194 C483.8428,300.990367 483.805446,301 483.767517,301 L475.232437,301 C475.104066,301 475,300.891998 475,300.75877 C475,300.720653 475.008703,300.683078 475.025397,300.649126 Z" id="Triangle" fill="#F5A623" opacity="0.9" transform="translate(479.500000, 296.500000) scale(1, -1) rotate(-160.000000) translate(-479.500000, -296.500000) "></path>
                <path d="M407.019753,263.727098 L410.276926,257.102385 C410.322307,257.010086 410.431192,256.973442 410.520127,257.02054 C410.553227,257.038069 410.580318,257.065758 410.597713,257.099839 L413.978935,263.724552 C414.025671,263.81612 413.992033,263.929672 413.903803,263.978176 C413.877733,263.992507 413.848681,264 413.81918,264 L407.180784,264 C407.08094,264 407,263.915998 407,263.812376 C407,263.78273 407.006769,263.753505 407.019753,263.727098 Z" id="Triangle" fill="#F5A623" opacity="0.84" transform="translate(410.500000, 260.500000) scale(-1, -1) rotate(-169.000000) translate(-410.500000, -260.500000) "></path>
                <path d="M302.019753,293.727098 L305.276926,287.102385 C305.322307,287.010086 305.431192,286.973442 305.520127,287.02054 C305.553227,287.038069 305.580318,287.065758 305.597713,287.099839 L308.978935,293.724552 C309.025671,293.81612 308.992033,293.929672 308.903803,293.978176 C308.877733,293.992507 308.848681,294 308.81918,294 L302.180784,294 C302.08094,294 302,293.915998 302,293.812376 C302,293.78273 302.006769,293.753505 302.019753,293.727098 Z" id="Triangle" fill="#F5A623" opacity="0.89" transform="translate(305.500000, 290.500000) scale(-1, 1) rotate(-71.000000) translate(-305.500000, -290.500000) "></path>
                <path d="M325.019753,35.7270983 L328.276926,29.1023853 C328.322307,29.0100856 328.431192,28.9734422 328.520127,29.02054 C328.553227,29.0380691 328.580318,29.0657585 328.597713,29.0998388 L331.978935,35.7245518 C332.025671,35.8161203 331.992033,35.9296716 331.903803,35.9781758 C331.877733,35.9925073 331.848681,36 331.81918,36 L325.180784,36 C325.08094,36 325,35.9159981 325,35.8123764 C325,35.78273 325.006769,35.7535055 325.019753,35.7270983 Z" id="Triangle" fill="#F5A623" opacity="0.71" transform="translate(328.500000, 32.500000) scale(1, -1) rotate(-122.000000) translate(-328.500000, -32.500000) "></path>
                <path d="M220.011287,153.844056 L221.872529,150.058506 C221.898461,150.005763 221.960681,149.984824 222.011501,150.011737 C222.030415,150.021754 222.045896,150.037576 222.055836,150.057051 L223.987963,153.842601 C224.014669,153.894926 223.995448,153.959812 223.94503,153.987529 C223.930133,153.995718 223.913532,154 223.896674,154 L220.103305,154 C220.046251,154 220,153.951999 220,153.892787 C220,153.875846 220.003868,153.859146 220.011287,153.844056 Z" id="Triangle" fill="#F5A623" opacity="0.91" transform="translate(222.000000, 152.000000) rotate(-187.000000) translate(-222.000000, -152.000000) "></path>
                <path d="M559.014109,358.844056 L561.340661,355.058506 C561.373076,355.005763 561.450851,354.984824 561.514376,355.011737 C561.538019,355.021754 561.55737,355.037576 561.569795,355.057051 L563.984954,358.842601 C564.018337,358.894926 563.99431,358.959812 563.931288,358.987529 C563.912667,358.995718 563.891915,359 563.870843,359 L559.129132,359 C559.057814,359 559,358.951999 559,358.892787 C559,358.875846 559.004835,358.859146 559.014109,358.844056 Z" id="Triangle" fill="#F5A623" opacity="0.81" transform="translate(561.500000, 357.000000) scale(1, -1) rotate(-152.000000) translate(-561.500000, -357.000000) "></path>
                <path d="M318.011287,511.844056 L319.872529,508.058506 C319.898461,508.005763 319.960681,507.984824 320.011501,508.011737 C320.030415,508.021754 320.045896,508.037576 320.055836,508.057051 L321.987963,511.842601 C322.014669,511.894926 321.995448,511.959812 321.94503,511.987529 C321.930133,511.995718 321.913532,512 321.896674,512 L318.103305,512 C318.046251,512 318,511.951999 318,511.892787 C318,511.875846 318.003868,511.859146 318.011287,511.844056 Z" id="Triangle" fill="#F5A623" opacity="0.85" transform="translate(320.000000, 510.000000) scale(-1, -1) rotate(-39.000000) translate(-320.000000, -510.000000) "></path>
                <path d="M295.011287,233.844056 L296.872529,230.058506 C296.898461,230.005763 296.960681,229.984824 297.011501,230.011737 C297.030415,230.021754 297.045896,230.037576 297.055836,230.057051 L298.987963,233.842601 C299.014669,233.894926 298.995448,233.959812 298.94503,233.987529 C298.930133,233.995718 298.913532,234 298.896674,234 L295.103305,234 C295.046251,234 295,233.951999 295,233.892787 C295,233.875846 295.003868,233.859146 295.011287,233.844056 Z" id="Triangle" fill="#F5A623" opacity="0.72" transform="translate(297.000000, 232.000000) scale(1, -1) rotate(-325.000000) translate(-297.000000, -232.000000) "></path>
                <path d="M301.014109,126.80507 L303.340661,122.073132 C303.373076,122.007204 303.450851,121.98103 303.514376,122.014671 C303.538019,122.027192 303.55737,122.04697 303.569795,122.071313 L305.984954,126.803251 C306.018337,126.868657 305.99431,126.949765 305.931288,126.984411 C305.912667,126.994648 305.891915,127 305.870843,127 L301.129132,127 C301.057814,127 301,126.939999 301,126.865983 C301,126.844807 301.004835,126.823932 301.014109,126.80507 Z" id="Triangle" fill="#F5A623" opacity="0.94" transform="translate(303.500000, 124.500000) scale(1, -1) rotate(-26.000000) translate(-303.500000, -124.500000) "></path>
                <path d="M96.0112874,305.844056 L97.872529,302.058506 C97.898461,302.005763 97.9606809,301.984824 98.011501,302.011737 C98.0304155,302.021754 98.0458962,302.037576 98.0558359,302.057051 L99.987963,305.842601 C100.014669,305.894926 99.9954477,305.959812 99.9450302,305.987529 C99.9301333,305.995718 99.9135317,306 99.896674,306 L96.1033053,306 C96.0462514,306 96,305.951999 96,305.892787 C96,305.875846 96.0038681,305.859146 96.0112874,305.844056 Z" id="Triangle" fill="#F5A623" opacity="0.92" transform="translate(98.000000, 304.000000) scale(1, -1) rotate(-150.000000) translate(-98.000000, -304.000000) "></path>
                <path d="M197.011287,113.844056 L198.872529,110.058506 C198.898461,110.005763 198.960681,109.984824 199.011501,110.011737 C199.030415,110.021754 199.045896,110.037576 199.055836,110.057051 L200.987963,113.842601 C201.014669,113.894926 200.995448,113.959812 200.94503,113.987529 C200.930133,113.995718 200.913532,114 200.896674,114 L197.103305,114 C197.046251,114 197,113.951999 197,113.892787 C197,113.875846 197.003868,113.859146 197.011287,113.844056 Z" id="Triangle-Copy" fill="#F5A623" opacity="0.94" transform="translate(199.000000, 112.000000) scale(-1, 1) rotate(-257.000000) translate(-199.000000, -112.000000) "></path>
                <path d="M513.090829,32.6534827 C513.691376,31.0035547 514.935329,30.1785907 516.822687,30.1785907 C519.653723,30.1785907 520.058101,33.549946 523.064695,33.549946 C526.071288,33.549946 525.905384,30 529.60435,30 C533.303316,30 533.921247,32.9100972 533.921247,32.9100972 C534.232613,33.625 533.553918,34.2182616 533.050851,33.549946 C532.547783,32.8816304 532.716602,31.166784 529.60435,31.166784 C526.492097,31.166784 527.426138,35 523.064695,35 C518.703251,35 519.160416,31.4194114 516.523446,31.4194114 C513.886475,31.4194114 514.827735,34.3879677 513.475125,33.9054499 C513.019883,33.7430513 512.891785,33.3257289 513.090829,32.6534827 Z" id="Path-2" fill="#50E3C2" opacity="0.99" transform="translate(523.500000, 32.500000) scale(-1, 1) rotate(-69.000000) translate(-523.500000, -32.500000) "></path>
                <path d="M211.064878,373.122786 C211.49384,371.802844 212.382378,371.142873 213.73049,371.142873 C215.752659,371.142873 216.041501,373.839957 218.189068,373.839957 C220.336635,373.839957 220.218131,371 222.86025,371 C225.502368,371 225.943748,373.328078 225.943748,373.328078 C226.166152,373.9 225.68137,374.374609 225.322036,373.839957 C224.962702,373.305304 225.083287,371.933427 222.86025,371.933427 C220.637212,371.933427 221.304384,375 218.189068,375 C215.073751,375 215.400297,372.135529 213.516747,372.135529 C211.633197,372.135529 212.305525,374.510374 211.339375,374.12436 C211.014202,373.994441 210.922703,373.660583 211.064878,373.122786 Z" id="Path-2" fill="#50E3C2" opacity="0.99" transform="translate(218.500000, 373.000000) rotate(-337.000000) translate(-218.500000, -373.000000) "></path>
                <path d="M198.077853,241.122786 C198.592608,239.802844 199.658854,239.142873 201.276589,239.142873 C203.703191,239.142873 204.049801,241.839957 206.626881,241.839957 C209.203962,241.839957 209.061758,239 212.2323,239 C215.402842,239 215.932497,241.328078 215.932497,241.328078 C216.199383,241.9 215.617644,242.374609 215.186444,241.839957 C214.755243,241.305304 214.899945,239.933427 212.2323,239.933427 C209.564655,239.933427 210.365261,243 206.626881,243 C202.888501,243 203.280357,240.135529 201.020096,240.135529 C198.759836,240.135529 199.56663,242.510374 198.40725,242.12436 C198.017043,241.994441 197.907244,241.660583 198.077853,241.122786 Z" id="Path-2" fill="#50E3C2" opacity="0.83" transform="translate(207.000000, 241.000000) scale(-1, -1) rotate(-44.000000) translate(-207.000000, -241.000000) "></path>
                <path d="M137.090829,253.653483 C137.691376,252.003555 138.935329,251.178591 140.822687,251.178591 C143.653723,251.178591 144.058101,254.549946 147.064695,254.549946 C150.071288,254.549946 149.905384,251 153.60435,251 C157.303316,251 157.921247,253.910097 157.921247,253.910097 C158.232613,254.625 157.553918,255.218262 157.050851,254.549946 C156.547783,253.88163 156.716602,252.166784 153.60435,252.166784 C150.492097,252.166784 151.426138,256 147.064695,256 C142.703251,256 143.160416,252.419411 140.523446,252.419411 C137.886475,252.419411 138.827735,255.387968 137.475125,254.90545 C137.019883,254.743051 136.891785,254.325729 137.090829,253.653483 Z" id="Path-2" fill="#50E3C2" opacity="0.99" transform="translate(147.500000, 253.500000) scale(-1, 1) rotate(-215.000000) translate(-147.500000, -253.500000) "></path>
                <path d="M74.0648776,298.122786 C74.4938403,296.802844 75.3823779,296.142873 76.7304904,296.142873 C78.7526592,296.142873 79.0415008,298.839957 81.1890677,298.839957 C83.3366346,298.839957 83.2181313,296 85.8602498,296 C88.5023684,296 88.9437479,298.328078 88.9437479,298.328078 C89.1661522,298.9 88.6813703,299.374609 88.3220364,298.839957 C87.9627024,298.305304 88.0832872,296.933427 85.8602498,296.933427 C83.6372125,296.933427 84.3043845,300 81.1890677,300 C78.073751,300 78.4002974,297.135529 76.516747,297.135529 C74.6331966,297.135529 75.3055252,299.510374 74.3393747,299.12436 C74.0142023,298.994441 73.9227032,298.660583 74.0648776,298.122786 Z" id="Path-2" fill="#50E3C2" opacity="0.76" transform="translate(81.500000, 298.000000) scale(-1, 1) rotate(-318.000000) translate(-81.500000, -298.000000) "></path>
                <path d="M431.077853,169.122786 C431.592608,167.802844 432.658854,167.142873 434.276589,167.142873 C436.703191,167.142873 437.049801,169.839957 439.626881,169.839957 C442.203962,169.839957 442.061758,167 445.2323,167 C448.402842,167 448.932497,169.328078 448.932497,169.328078 C449.199383,169.9 448.617644,170.374609 448.186444,169.839957 C447.755243,169.305304 447.899945,167.933427 445.2323,167.933427 C442.564655,167.933427 443.365261,171 439.626881,171 C435.888501,171 436.280357,168.135529 434.020096,168.135529 C431.759836,168.135529 432.56663,170.510374 431.40725,170.12436 C431.017043,169.994441 430.907244,169.660583 431.077853,169.122786 Z" id="Path-2" fill="#50E3C2" opacity="0.74" transform="translate(440.000000, 169.000000) rotate(-342.000000) translate(-440.000000, -169.000000) "></path>
                <path d="M266.051902,474.59209 C266.395072,473.602133 267.105902,473.107154 268.184392,473.107154 C269.802127,473.107154 270.033201,475.129968 271.751254,475.129968 C273.469308,475.129968 273.374505,473 275.4882,473 C277.601895,473 277.954998,474.746058 277.954998,474.746058 C278.132922,475.175 277.745096,475.530957 277.457629,475.129968 C277.170162,474.728978 277.26663,473.70007 275.4882,473.70007 C273.70977,473.70007 274.243508,476 271.751254,476 C269.259001,476 269.520238,473.851647 268.013398,473.851647 C266.506557,473.851647 267.04442,475.632781 266.2715,475.34327 C266.011362,475.245831 265.938163,474.995437 266.051902,474.59209 Z" id="Path-2" fill="#50E3C2" opacity="0.98" transform="translate(272.000000, 474.500000) scale(-1, 1) rotate(-84.000000) translate(-272.000000, -474.500000) "></path>
                <path d="M63.0735279,104.122786 C63.5596857,102.802844 64.566695,102.142873 66.0945558,102.142873 C68.3863471,102.142873 68.713701,104.839957 71.1476101,104.839957 C73.5815192,104.839957 73.4472155,102 76.4416165,102 C79.4360175,102 79.9362476,104.328078 79.9362476,104.328078 C80.1883058,104.9 79.6388863,105.374609 79.2316412,104.839957 C78.8243961,104.305304 78.9610588,102.933427 76.4416165,102.933427 C73.9221741,102.933427 74.6783024,106 71.1476101,106 C67.6169178,106 67.9870037,103.135529 65.8523132,103.135529 C63.7176228,103.135529 64.4795952,105.510374 63.3846246,105.12436 C63.0160959,104.994441 62.912397,104.660583 63.0735279,104.122786 Z" id="Path-2" fill="#50E3C2" opacity="0.8" transform="translate(71.500000, 104.000000) rotate(-223.000000) translate(-71.500000, -104.000000) "></path>
                <path d="M503.069203,442.122786 C503.526763,440.802844 504.474536,440.142873 505.912523,440.142873 C508.069503,440.142873 508.377601,442.839957 510.668339,442.839957 C512.959077,442.839957 512.832673,440 515.650933,440 C518.469193,440 518.939998,442.328078 518.939998,442.328078 C519.177229,442.9 518.660128,443.374609 518.276839,442.839957 C517.893549,442.305304 518.022173,440.933427 515.650933,440.933427 C513.279693,440.933427 513.991343,444 510.668339,444 C507.345334,444 507.693651,441.135529 505.68453,441.135529 C503.67541,441.135529 504.39256,443.510374 503.362,443.12436 C503.015149,442.994441 502.91755,442.660583 503.069203,442.122786 Z" id="Path-2" fill="#50E3C2" opacity="0.97" transform="translate(511.000000, 442.000000) rotate(-127.000000) translate(-511.000000, -442.000000) "></path>
                <path d="M402.095154,42.6534827 C402.724299,41.0035547 404.027488,40.1785907 406.004719,40.1785907 C408.970567,40.1785907 409.394201,43.549946 412.543966,43.549946 C415.693731,43.549946 415.519926,40 419.395033,40 C423.27014,40 423.917497,42.9100972 423.917497,42.9100972 C424.24369,43.625 423.532676,44.2182616 423.005653,43.549946 C422.47863,42.8816304 422.655488,41.166784 419.395033,41.166784 C416.134578,41.166784 417.113097,45 412.543966,45 C407.974835,45 408.45377,41.4194114 405.691229,41.4194114 C402.928688,41.4194114 403.91477,44.3879677 402.49775,43.9054499 C402.02083,43.7430513 401.886631,43.3257289 402.095154,42.6534827 Z" id="Path-2" fill="#50E3C2" opacity="0.98" transform="translate(413.000000, 42.500000) rotate(-177.000000) translate(-413.000000, -42.500000) "></path>
                <path d="M553.060552,436.122786 C553.460918,434.802844 554.290219,434.142873 555.548458,434.142873 C557.435815,434.142873 557.705401,436.839957 559.709797,436.839957 C561.714192,436.839957 561.603589,434 564.069567,434 C566.535544,434 566.947498,436.328078 566.947498,436.328078 C567.155075,436.9 566.702612,437.374609 566.367234,436.839957 C566.031856,436.305304 566.144401,434.933427 564.069567,434.933427 C561.994732,434.933427 562.617426,438 559.709797,438 C556.802168,438 557.106944,435.135529 555.348964,435.135529 C553.590983,435.135529 554.21849,437.510374 553.31675,437.12436 C553.013255,436.994441 552.927856,436.660583 553.060552,436.122786 Z" id="Path-2" fill="#50E3C2" opacity="0.71" transform="translate(560.000000, 436.000000) scale(1, -1) rotate(-191.000000) translate(-560.000000, -436.000000) "></path>
                <path d="M242.056227,492.59209 C242.427995,491.602133 243.198061,491.107154 244.366425,491.107154 C246.118971,491.107154 246.369301,493.129968 248.230525,493.129968 C250.09175,493.129968 249.989047,491 252.278883,491 C254.568719,491 254.951248,492.746058 254.951248,492.746058 C255.143999,493.175 254.723854,493.530957 254.412432,493.129968 C254.101009,492.728978 254.205516,491.70007 252.278883,491.70007 C250.352251,491.70007 250.930467,494 248.230525,494 C245.530584,494 245.813591,491.851647 244.181181,491.851647 C242.54877,491.851647 243.131455,493.632781 242.294125,493.34327 C242.012309,493.245831 241.933009,492.995437 242.056227,492.59209 Z" id="Path-2" fill="#50E3C2" opacity="0.74" transform="translate(248.500000, 492.500000) rotate(-223.000000) translate(-248.500000, -492.500000) "></path>
                <path d="M161.051902,401.59209 C161.395072,400.602133 162.105902,400.107154 163.184392,400.107154 C164.802127,400.107154 165.033201,402.129968 166.751254,402.129968 C168.469308,402.129968 168.374505,400 170.4882,400 C172.601895,400 172.954998,401.746058 172.954998,401.746058 C173.132922,402.175 172.745096,402.530957 172.457629,402.129968 C172.170162,401.728978 172.26663,400.70007 170.4882,400.70007 C168.70977,400.70007 169.243508,403 166.751254,403 C164.259001,403 164.520238,400.851647 163.013398,400.851647 C161.506557,400.851647 162.04442,402.632781 161.2715,402.34327 C161.011362,402.245831 160.938163,401.995437 161.051902,401.59209 Z" id="Path-2" fill="#50E3C2" opacity="0.93" transform="translate(167.000000, 401.500000) scale(-1, 1) rotate(-353.000000) translate(-167.000000, -401.500000) "></path>
                <path d="M483.077853,231.122786 C483.592608,229.802844 484.658854,229.142873 486.276589,229.142873 C488.703191,229.142873 489.049801,231.839957 491.626881,231.839957 C494.203962,231.839957 494.061758,229 497.2323,229 C500.402842,229 500.932497,231.328078 500.932497,231.328078 C501.199383,231.9 500.617644,232.374609 500.186444,231.839957 C499.755243,231.305304 499.899945,229.933427 497.2323,229.933427 C494.564655,229.933427 495.365261,233 491.626881,233 C487.888501,233 488.280357,230.135529 486.020096,230.135529 C483.759836,230.135529 484.56663,232.510374 483.40725,232.12436 C483.017043,231.994441 482.907244,231.660583 483.077853,231.122786 Z" id="Path-2" fill="#50E3C2" opacity="0.71" transform="translate(492.000000, 231.000000) rotate(-3.000000) translate(-492.000000, -231.000000) "></path>
                <path d="M317.077853,150.122786 C317.592608,148.802844 318.658854,148.142873 320.276589,148.142873 C322.703191,148.142873 323.049801,150.839957 325.626881,150.839957 C328.203962,150.839957 328.061758,148 331.2323,148 C334.402842,148 334.932497,150.328078 334.932497,150.328078 C335.199383,150.9 334.617644,151.374609 334.186444,150.839957 C333.755243,150.305304 333.899945,148.933427 331.2323,148.933427 C328.564655,148.933427 329.365261,152 325.626881,152 C321.888501,152 322.280357,149.135529 320.020096,149.135529 C317.759836,149.135529 318.56663,151.510374 317.40725,151.12436 C317.017043,150.994441 316.907244,150.660583 317.077853,150.122786 Z" id="Path-2" fill="#50E3C2" opacity="0.94" transform="translate(326.000000, 150.000000) scale(-1, 1) rotate(-189.000000) translate(-326.000000, -150.000000) "></path>
                <path d="M213.069203,289.122786 C213.526763,287.802844 214.474536,287.142873 215.912523,287.142873 C218.069503,287.142873 218.377601,289.839957 220.668339,289.839957 C222.959077,289.839957 222.832673,287 225.650933,287 C228.469193,287 228.939998,289.328078 228.939998,289.328078 C229.177229,289.9 228.660128,290.374609 228.276839,289.839957 C227.893549,289.305304 228.022173,287.933427 225.650933,287.933427 C223.279693,287.933427 223.991343,291 220.668339,291 C217.345334,291 217.693651,288.135529 215.68453,288.135529 C213.67541,288.135529 214.39256,290.510374 213.362,290.12436 C213.015149,289.994441 212.91755,289.660583 213.069203,289.122786 Z" id="Path-2" fill="#50E3C2" opacity="0.92" transform="translate(221.000000, 289.000000) scale(-1, -1) rotate(-277.000000) translate(-221.000000, -289.000000) "></path>
                <path d="M551.077853,39.1227862 C551.592608,37.8028438 552.658854,37.1428726 554.276589,37.1428726 C556.703191,37.1428726 557.049801,39.8399568 559.626881,39.8399568 C562.203962,39.8399568 562.061758,37 565.2323,37 C568.402842,37 568.932497,39.3280778 568.932497,39.3280778 C569.199383,39.9 568.617644,40.3746093 568.186444,39.8399568 C567.755243,39.3053043 567.899945,37.9334272 565.2323,37.9334272 C562.564655,37.9334272 563.365261,41 559.626881,41 C555.888501,41 556.280357,38.1355292 554.020096,38.1355292 C551.759836,38.1355292 552.56663,40.5103742 551.40725,40.1243599 C551.017043,39.9944411 550.907244,39.6605832 551.077853,39.1227862 Z" id="Path-2-Copy" fill="#50E3C2" opacity="0.89" transform="translate(560.000000, 39.000000) scale(-1, 1) rotate(-310.000000) translate(-560.000000, -39.000000) "></path>
                <path d="M381.073528,426.122786 C381.559686,424.802844 382.566695,424.142873 384.094556,424.142873 C386.386347,424.142873 386.713701,426.839957 389.14761,426.839957 C391.581519,426.839957 391.447215,424 394.441616,424 C397.436017,424 397.936248,426.328078 397.936248,426.328078 C398.188306,426.9 397.638886,427.374609 397.231641,426.839957 C396.824396,426.305304 396.961059,424.933427 394.441616,424.933427 C391.922174,424.933427 392.678302,428 389.14761,428 C385.616918,428 385.987004,425.135529 383.852313,425.135529 C381.717623,425.135529 382.479595,427.510374 381.384625,427.12436 C381.016096,426.994441 380.912397,426.660583 381.073528,426.122786 Z" id="Path-2-Copy" fill="#50E3C2" opacity="0.75" transform="translate(389.500000, 426.000000) scale(1, -1) rotate(-206.000000) translate(-389.500000, -426.000000) "></path>
                <path d="M285.077853,361.122786 C285.592608,359.802844 286.658854,359.142873 288.276589,359.142873 C290.703191,359.142873 291.049801,361.839957 293.626881,361.839957 C296.203962,361.839957 296.061758,359 299.2323,359 C302.402842,359 302.932497,361.328078 302.932497,361.328078 C303.199383,361.9 302.617644,362.374609 302.186444,361.839957 C301.755243,361.305304 301.899945,359.933427 299.2323,359.933427 C296.564655,359.933427 297.365261,363 293.626881,363 C289.888501,363 290.280357,360.135529 288.020096,360.135529 C285.759836,360.135529 286.56663,362.510374 285.40725,362.12436 C285.017043,361.994441 284.907244,361.660583 285.077853,361.122786 Z" id="Path-2-Copy" fill="#50E3C2" opacity="0.75" transform="translate(294.000000, 361.000000) scale(-1, 1) rotate(-56.000000) translate(-294.000000, -361.000000) "></path>
                <circle id="Oval" fill="#F8E71C" opacity="0.76" transform="translate(404.500000, 505.500000) scale(-1, 1) rotate(-184.000000) translate(-404.500000, -505.500000) " cx="404.5" cy="505.5" r="3.5"></circle>
                <circle id="Oval" fill="#F8E71C" opacity="0.78" transform="translate(92.000000, 449.000000) scale(1, -1) rotate(-148.000000) translate(-92.000000, -449.000000) " cx="92" cy="449" r="4"></circle>
                <circle id="Oval" fill="#F8E71C" opacity="0.82" transform="translate(555.000000, 155.000000) scale(1, -1) rotate(-142.000000) translate(-555.000000, -155.000000) " cx="555" cy="155" r="2"></circle>
                <circle id="Oval" fill="#F8E71C" opacity="0.73" transform="translate(141.000000, 529.000000) scale(-1, -1) rotate(-67.000000) translate(-141.000000, -529.000000) " cx="141" cy="529" r="2"></circle>
                <ellipse id="Oval" fill="#F8E71C" opacity="0.76" transform="translate(511.000000, 121.500000) scale(-1, 1) rotate(-120.000000) translate(-511.000000, -121.500000) " cx="511" cy="121.5" rx="4" ry="4.5"></ellipse>
                <circle id="Oval" fill="#F8E71C" opacity="0.95" transform="translate(434.000000, 313.000000) scale(-1, 1) rotate(-252.000000) translate(-434.000000, -313.000000) " cx="434" cy="313" r="4"></circle>
                <circle id="Oval" fill="#F8E71C" opacity="0.99" transform="translate(515.000000, 192.000000) scale(-1, -1) rotate(-311.000000) translate(-515.000000, -192.000000) " cx="515" cy="192" r="4"></circle>
                <circle id="Oval" fill="#F8E71C" opacity="0.88" transform="translate(358.000000, 353.000000) scale(-1, -1) rotate(-64.000000) translate(-358.000000, -353.000000) " cx="358" cy="353" r="2"></circle>
                <ellipse id="Oval" fill="#F8E71C" opacity="0.77" transform="translate(151.000000, 192.500000) scale(1, -1) rotate(-12.000000) translate(-151.000000, -192.500000) " cx="151" cy="192.5" rx="4" ry="4.5"></ellipse>
                <circle id="Oval" fill="#F8E71C" opacity="0.84" transform="translate(101.500000, 108.500000) rotate(-160.000000) translate(-101.500000, -108.500000) " cx="101.5" cy="108.5" r="2.5"></circle>
            </g>
        </g>
    </g>
</svg>